<svg width="51" height="51" viewBox="0 0 51 51" fill="none" xmlns="http://www.w3.org/2000/svg">
<g clip-path="url(#clip0_1004_10249)">
<rect x="50" y="12" width="20" height="27" rx="3" transform="rotate(90 50 12)" fill="#23F3D5"/>
<rect x="3" y="13" width="13" height="26" rx="2" stroke="#3E4140" stroke-width="2"/>
<rect x="49" y="9" width="22" height="29" rx="2" transform="rotate(90 49 9)" stroke="#3E4140" stroke-width="2"/>
<path d="M20 35H49" stroke="#3E4140" stroke-width="3" stroke-linecap="round"/>
<path d="M3 34H7" stroke="#3E4140" stroke-width="3" stroke-linecap="round"/>
<path d="M10 18H11" stroke="#3E4140" stroke-width="3" stroke-linecap="round"/>
<mask id="path-7-inside-1_1004_10249" fill="white">
<rect x="7" y="16" width="14" height="5" rx="2" transform="rotate(90 7 16)"/>
</mask>
<rect x="7" y="16" width="14" height="5" rx="2" transform="rotate(90 7 16)" stroke="#3E4140" stroke-width="5" mask="url(#path-7-inside-1_1004_10249)"/>
<path d="M14.5 34C16.9853 34 19 36.0147 19 38.5C19 40.9853 16.9853 43 14.5 43C12.0147 43 10 40.9853 10 38.5C10 36.0147 12.0147 34 14.5 34ZM14.5 38C14.2239 38 14 38.2239 14 38.5C14 38.7761 14.2239 39 14.5 39C14.7761 39 15 38.7761 15 38.5C15 38.2239 14.7761 38 14.5 38Z" fill="#3E4140"/>
<path d="M34.5 34C36.9853 34 39 36.0147 39 38.5C39 40.9853 36.9853 43 34.5 43C32.0147 43 30 40.9853 30 38.5C30 36.0147 32.0147 34 34.5 34ZM34.5 38C34.2239 38 34 38.2239 34 38.5C34 38.7761 34.2239 39 34.5 39C34.7761 39 35 38.7761 35 38.5C35 38.2239 34.7761 38 34.5 38Z" fill="#3E4140"/>
<path d="M44.5 34C46.9853 34 49 36.0147 49 38.5C49 40.9853 46.9853 43 44.5 43C42.0147 43 40 40.9853 40 38.5C40 36.0147 42.0147 34 44.5 34ZM44.5 38C44.2239 38 44 38.2239 44 38.5C44 38.7761 44.2239 39 44.5 39C44.7761 39 45 38.7761 45 38.5C45 38.2239 44.7761 38 44.5 38Z" fill="#3E4140"/>
<path d="M36.542 17C37.2139 17.0001 37.8408 17.3376 38.2109 17.8984L39.4375 19.7578C39.9116 20.4765 39.8728 21.4178 39.3408 22.0947L36.5723 25.6172C35.7715 26.6361 34.2285 26.6361 33.4277 25.6172L30.6592 22.0947C30.1272 21.4178 30.0884 20.4765 30.5625 19.7578L31.7891 17.8984C32.1592 17.3376 32.7861 17.0001 33.458 17H36.542Z" fill="white" stroke="#3E4140" stroke-width="2"/>
<path d="M32.607 21.5657L34.3155 23.593C34.7026 24.0524 35.4102 24.0524 35.7974 23.593L37.5059 21.5657C38.037 20.9355 37.589 19.9722 36.7649 19.9722H33.3479C32.5239 19.9722 32.0759 20.9355 32.607 21.5657Z" fill="#23F3D5"/>
<line x1="26" y1="13" x2="26" y2="27" stroke="#3E4140" stroke-width="2" stroke-linecap="round"/>
<line x1="44" y1="13" x2="44" y2="27" stroke="#3E4140" stroke-width="2" stroke-linecap="round"/>
<line x1="32" y1="13" x2="32" y2="14" stroke="#3E4140" stroke-width="2" stroke-linecap="round"/>
<line x1="37" y1="13" x2="37" y2="14" stroke="#3E4140" stroke-width="2" stroke-linecap="round"/>
</g>
<defs>
<clipPath id="clip0_1004_10249">
<rect width="51" height="51" fill="white"/>
</clipPath>
</defs>
</svg>
