<svg preserveAspectRatio="none" overflow="visible" style="display: block;" width="15" height="15" viewBox="0 0 15 15" fill="none" xmlns="http://www.w3.org/2000/svg">
<g id="Actions">
<circle id="Ellipse 2" cx="6.56931" cy="3.36" r="2.16" stroke="#A2A2A2" stroke-width="1.2"/>
<path id="Ellipse 2_2" d="M2.6 10.8C2.6 8.67923 4.53413 6.96 6.92 6.96C7.91419 6.96 8.82995 7.25853 9.56 7.76024" stroke="#A2A2A2" stroke-width="1.2" stroke-linecap="round"/>
<path id="Vector" d="M12.0933 11.1009C11.6827 12.2949 10.0098 13.8143 9.93567 13.8794L9.80402 14L9.67279 13.8794C9.60295 13.8143 7.92618 12.2949 7.51514 11.1009V11.0865C7.48212 11.0214 7.4618 10.9563 7.4453 10.896L7.42455 10.8128C7.40804 10.7242 7.4 10.64 7.4 10.5519C7.4 9.80395 7.97106 9.2 8.67376 9.2C9.08017 9.2 9.44125 9.40236 9.67433 9.7161C9.73329 9.79546 9.86636 9.7955 9.92545 9.71623C10.1594 9.40241 10.5229 9.2 10.9258 9.2C11.6285 9.2 12.2 9.80873 12.2 10.5519C12.2 10.6405 12.192 10.729 12.1754 10.8128L12.1589 10.9147C12.1429 10.9702 12.1259 11.0262 12.1014 11.0774L12.0933 11.1009Z" stroke="#A2A2A2" stroke-width="1.2"/>
</g>
</svg>
