<svg preserveAspectRatio="none" overflow="visible" style="display: block;" width="25" height="25" viewBox="0 0 25 25" fill="none" xmlns="http://www.w3.org/2000/svg">
<g id="Graph">
<path id="Union" d="M20.6527 3.33398C21.8914 3.33372 22.9104 4.35283 22.9368 5.61816L23.0111 9.12305C23.0239 9.74305 22.5417 10.2566 21.9349 10.2695C21.3282 10.2823 20.8258 9.78989 20.8128 9.16992L20.7718 7.19434L12.0238 16.2939C10.8906 17.4727 8.91545 17.065 8.34115 15.5342L7.35579 12.9063L6.90267 18.2041C6.80437 19.3537 5.84258 20.2371 4.6888 20.2373H2.77865C2.16507 20.2373 1.66743 19.7395 1.66732 19.126C1.66743 18.5124 2.16507 18.0146 2.77865 18.0146H4.6888L5.14193 12.7168C5.34365 10.3568 8.60418 9.90813 9.43587 12.126L10.4222 14.7539L19.2396 5.58008L17.223 5.58105C16.6163 5.58088 16.124 5.07787 16.1234 4.45801C16.1231 3.83803 16.6152 3.33527 17.222 3.33496L20.6527 3.33398Z" fill="#23F3D5"/>
</g>
</svg>
